ply
format ascii 1.0
comment Generated by PyMesh
element vertex 270
property float x
property float y
property float z
property float charge
property float hbond
property float hphob
property float nx
property float ny
property float nz
property float si
element face 475
property list uchar int vertex_indices
end_header
11.031 5.648 18.946 0.187639 0 -1.3 0.0753084 0.938424 0.337178 -0.426712
14.5772 16.9412 23.085 -0.119469 0 2.8 0.926384 0.352255 0.133151 0.581288
10.418 15.0557 40.6678 1.74601 0 1.48781 0.359614 0.319747 0.876607 -0.999932
18.296 9.77 17.321 0.0430069 0 -0.7 -0.184723 0.278561 -0.942487 -0.999884
8.18 6.218 11.2105 -0.137837 0 -3.2 0.561085 0.589793 -0.580799 0.99986
13.9375 8.6775 28.545 0.0789131 0 3.8 -0.603325 0.716522 -0.350135 -0.124137
7.851 8.0105 24.539 0.428642 0 4.2 0.711755 0.675009 -0.194339 0.146253
17.099 5.4455 31.9557 -0.103053 0 3.8 -0.257219 -0.609005 0.750301 0.999891
10.58 13.6145 13.4985 -0.137382 0 4.2 0.334815 0.698901 -0.63201 -0.457832
2.9365 7.0215 34.3022 -0.983473 -0.0270484 -0.8 0.333718 -0.115534 0.935566 0.999901
8.2185 9.7955 12.149 0.135963 0 4.2 0.282936 -0.163034 -0.945181 -0.302149
10.1178 6.00925 24.9001 0.283667 0 3.84722 0.279802 0.876063 -0.392715 0.742405
13.3851 13.0749 25.9294 0.655974 0 1.9 -0.569496 -0.79771 -0.198325 -0.829322
11.0057 10.961 15.2587 0.349307 0 4.2 0.83167 -0.537888 0.137843 -0.554485
8.79387 11.9979 12.2214 0.194722 0 4.2 -0.000603531 0.492859 -0.870109 -0.665643
6.7085 13.9236 35.6555 -0.0997728 0 1.41122 0.159349 -0.95262 -0.25908 0.717813
15.0246 12.7404 23.0931 0.371213 0 3.31028 -0.806442 -0.591211 0.0110405 0.595435
7.18138 11.5511 20.7155 0.318832 0 3.8 0.755779 -0.244362 0.607524 0.853697
9.17825 14.5218 34.1744 0.297604 0 -0.766015 0.12132 -0.624931 -0.771195 0.999773
6.65 13.616 30.4142 0.178057 0 4.5 0.808915 -0.582707 0.0781626 -0.145296
18.0986 4.0765 17.8937 0.856637 -0.0488755 -1.6 0.390615 -0.358648 -0.847816 -0.442577
13.8125 6.5165 22.3995 0.764323 0 4.2 -0.683042 0.597882 -0.419513 0.632466
8.22062 13.2421 23.4543 0.230326 0 4.5 0.582929 -0.768073 0.265062 -0.0939703
15.0533 0.9865 21.3923 -0.559642 0 -0.7 0.596017 -0.71571 -0.364038 0.999891
9.07625 7.55075 36.3582 0.847087 0 -1.3 -0.255874 0.371145 0.892625 -0.723445
20.528 9.097 19.805 -0.115285 0 -0.7 0.718797 0.526375 -0.454159 -0.628336
8.42612 8.33237 30.4165 0.484056 0 -0.733246 0.0695097 0.933829 -0.350902 0.0811429
16.7892 8.5725 17.9815 0.200913 0 -0.7 -0.61312 0.231045 -0.755448 -0.999886
21.2125 11.4117 21.7095 -0.131045 0 -0.7 0.179989 0.265553 -0.947146 -0.999911
12.9875 17.1087 16.2498 0.052279 -0.059257 3.8 0.74387 0.426197 -0.514794 -0.999859
6.69312 4.50962 33.6989 0.108409 0 -1.3 -0.590177 -0.205096 0.780786 0.999913
11.846 8.98063 36.2191 0.913883 0 3.8 -0.300917 -0.00295701 0.953646 0.256286
11.6602 12.3287 12.5484 0.0547832 0 4.2 0.528972 0.348178 -0.773926 -0.999871
7.067 11.1395 12.377 0.175151 0 4.2 -0.302069 0.350683 -0.88644 -0.47499
14.0802 6.43113 35.2861 0.147875 0 3.8 0.492499 -0.83538 0.244101 -0.510183
7.34562 9.97563 21.2703 0.319658 0 3.8 0.800663 0.267387 0.536138 0.489695
14.2999 15.2694 17.3164 0.0311379 0 3.8 0.779828 0.478779 -0.403285 0.0912409
14.8559 11.7725 25.1087 -0.424003 -0.0141012 1.9 -0.914488 -0.404545 -0.0073815 -0.398572
4.21875 10.9045 36.1135 0.197768 0 -0.4 0.669949 -0.674125 0.311003 -0.086564
7.08138 7.2885 11.6327 0.386002 -0.0759529 -3.2 0.35802 0.461445 -0.811721 0.99991
19.8372 3.8955 18.51 -0.682269 -0.151971 -1.6 0.436167 -0.0377819 -0.899072 -0.999849
14.888 8.10325 27.088 -0.0615102 0 3.8 -0.714413 0.655738 -0.244177 0.999801
12.625 8.09313 29.0352 0.181263 0 3.8 -0.0946397 0.965912 -0.240952 0.25204
8.74825 6.50425 23.7445 0.403983 0 4.13831 0.598657 0.734591 -0.319354 0.474849
9.7265 5.0705 10.8906 -0.474335 0 -3.2 0.770237 0.595392 -0.228569 -0.999878
10.4272 13.6143 41.1898 4.03032 0 -3.9 0.698906 0.0584147 0.712824 -0.999908
18.2071 15.2236 19.4002 0.122548 0 3.8 0.664381 0.614357 -0.425633 -0.999903
12.433 12.468 32.8377 0.564212 0 -1.6 -0.723369 -0.188367 -0.664271 0.140501
14.7719 6.48812 18.1602 0.542571 0 -1.6 -0.256185 0.849512 -0.461192 -0.9998
10.5076 6.13588 14.9137 0.728674 0 -1.3 0.792311 0.51442 -0.328048 -0.35456
16.4147 10.8629 27.1725 -0.96664 -0.555608 1.9 -0.913448 -0.165088 0.371965 0.999897
13.8392 13.0736 28.9271 1.29744 0 -1.10156 -0.692268 -0.720553 -0.0396079 0.163026
3.91363 11.9811 39.7286 0.207825 0 -3.82657 0.0682642 -0.955583 0.286709 -0.999881
10.4041 3.81425 31.8512 0.516982 0 1.69286 0.682514 -0.212667 0.699248 0.999917
10.073 15.5155 32.7145 0.210184 0 1.9 -0.245916 -0.918191 -0.310566 0.999801
15.7886 7.54787 35.1804 1.77537 0 3.8 0.365849 -0.708406 0.603586 -0.153935
11.6885 10.7554 13.3549 0.124405 0 4.2 0.806925 -0.492616 -0.325886 -0.745628
4.50025 10.6965 14.5548 -0.573292 -0.232237 -0.7 -0.79649 0.269058 -0.541489 -0.999928
12.8062 10.4324 32.583 0.298149 0 2.83182 -0.514237 0.377909 -0.769899 0.336926
16.1712 10.2439 20.5871 -0.185564 -0.213419 2.80008 -0.711567 -0.305322 -0.632812 0.252718
19.5325 11.4943 21.4134 -0.316071 0 3.8 0.507319 0.194843 -0.839443 0.571382
12.2312 12.0475 18.4702 0.21446 0 3.8 -0.000397723 -0.980949 0.194265 -0.416025
11.8655 14.4187 32.2513 -0.233671 0 1.53565 -0.616948 -0.680347 -0.395605 0.302679
9.71975 13.0641 22.1501 0.182357 0 4.5 0.246308 -0.874364 0.418114 -0.449465
4.29338 8.057 33.9461 -0.1281 -0.611578 -0.827048 0.126341 -0.228685 0.965267 0.478992
8.11487 4.17963 35.0889 -0.0853356 -0.0136835 -1.3 -0.658608 -0.346279 0.668076 -0.99992
12.5919 5.86225 36.2849 0.07804 0 3.8 0.378375 -0.677593 0.630635 -0.540924
17.35 8.6525 35.3517 0.338815 0 3.8 0.31022 -0.557912 0.769738 -0.999915
16.9912 2.64462 18.6265 0.962703 0 -1.6 0.329075 -0.871174 -0.36437 -0.593608
12.4785 3.5555 31.3587 -1.35652 -0.318363 3.97989 0.193104 0.107831 0.975235 0.999908
9.09663 10.8751 41.7518 10.3384 0 -3.9 -0.245251 -0.941906 0.229489 -0.999927
17.1516 6.85537 33.7446 1.69485 0 1.99039 0.0250951 -0.873109 0.486878 -0.999861
12.9606 13.379 27.6513 0.799926 0 1.9 -0.630161 -0.773519 0.0675684 -0.590991
10.5121 3.1305 14.7058 0.323065 0 -1.3 0.629967 -0.244124 -0.737255 0.39809
19.8032 4.342 21.7556 0.637022 0 -0.60753 0.523312 -0.801177 0.290275 -0.999917
5.29281 6.90588 33.579 0.383038 0 -1.11838 -0.152916 -0.229134 0.961309 0.763086
9.15525 7.556 25.342 0.319731 0 4.2 0.549792 0.752051 -0.36352 -0.578077
9.9075 0.321125 15.0798 1.73142 -0.16054 -0.7 0.768543 -0.574218 -0.282161 -0.9999
14.0398 5.55394 30.5436 0.0452624 0 3.8 -0.0676479 -0.353471 0.932996 0.999868
6.03606 9.94881 33.5633 -0.0386879 -0.625819 -1.3 0.412834 0.516675 0.750076 0.0704676
13.0041 5.34069 18.3294 0.0690031 0 -1.57252 -0.0171752 0.952129 -0.305213 0.0362261
12.2409 5.19725 22.6735 -0.09485 0 4.1279 -0.257164 0.843852 -0.470936 0.999823
14.6052 10.4639 36.9024 -0.353881 -0.551444 -0.972784 0.0394335 -0.572505 0.818952 0.347997
11.43 5.50437 16.7936 -0.0249825 0 -1.3 0.583047 0.774969 -0.243885 0.0375372
9.92706 10.9533 12.0686 0.118279 0 4.2 0.256751 -0.0855781 -0.962681 -0.580257
13.0442 -0.37075 18.4188 0.358093 0 -3.5 0.595477 -0.704622 -0.385895 -0.999871
13.9501 13.5301 22.0359 0.35864 0 3.8 -0.617638 -0.725759 0.30298 0.871125
8.81919 5.85825 22.121 0.370528 0 3.8 0.612559 0.771059 -0.173896 0.648221
10.6801 5.27969 32.5052 -0.0976073 0 -0.828343 0.782336 -0.57709 0.234345 0.71581
9.79525 -0.174 16.8067 1.57039 0 -0.7 0.59634 -0.694193 -0.403082 0.9999
15.2661 13.5404 17.1082 0.0711346 0 3.8 0.935622 -0.0119712 -0.352801 -0.722874
6.98737 7.796 29.2955 0.837665 0 3.73808 0.401562 0.886593 -0.229569 0.999826
8.70925 14.6211 24.1274 0.095397 0 4.5 0.637419 -0.733353 0.236413 0.678807
7.71088 5.65631 35.456 -0.239969 0 -1.3 -0.715579 -0.20709 0.667129 -0.558721
13.8526 0.374 20.4261 -0.746121 -0.129309 -1.3 0.682816 -0.706209 -0.187167 0.999873
9.90394 9.06856 33.5552 0.0613768 0 -0.722186 -0.148931 0.943834 -0.294952 0.213941
12.8439 14.5073 30.8013 -0.0748742 0 -1.20386 -0.636886 -0.737273 -0.225401 0.999716
8.31706 14.7051 26.3164 0.377696 0 2.51035 0.540811 -0.80313 0.250011 0.398435
11.3421 11.9292 16.6811 0.271987 0 4.2 0.480849 -0.868017 0.123821 0.142471
9.49331 9.213 16.064 0.409563 -0.369687 0.729964 0.8582 -0.323317 0.398697 0.167064
5.31163 9.79638 29.0683 0.656892 -0.13356 2.22839 0.953379 0.23994 -0.183023 0.811468
17.463 16.8057 25.8918 1.53058 -0.396703 0.818006 0.271089 0.30364 -0.913408 0.999896
9.25075 5.55725 19.0737 0.653641 0 -1.3 0.476273 0.81749 0.323842 0.747777
10.0697 7.29906 15.9551 -0.616879 -0.452373 -1.3 0.908362 0.380795 0.172838 -0.16625
18.947 15.5855 25.3932 1.53334 0 -0.8 0.23878 0.589892 -0.77137 0.999849
11.3757 -0.339875 17.9685 1.02731 0 -3.5 0.264036 -0.69929 -0.664289 0.999852
7.71331 14.6174 28.6502 0.382602 0 4.5 0.669538 -0.724335 0.16449 0.199725
5.72394 12.9189 36.2706 0.242871 0 -2.37888 0.592881 -0.760265 -0.265497 0.457018
14.3 11.8138 29.904 2.34833 -0.431455 -1.3 -0.840672 -0.337856 -0.423231 -0.0417594
13.4536 13.0324 31.6717 -0.116988 0 -1.46276 -0.815554 -0.391715 -0.425947 0.802897
13.0396 7.45344 27.5034 0.178993 0 3.8 -0.219537 0.908671 -0.355134 0.649495
14.814 7.91262 25.5349 0.220819 0 4.2 -0.621643 0.774208 0.119003 0.999776
9.2685 15.2289 27.6316 0.682684 0 1.9 0.212926 -0.937285 0.27597 0.184347
7.87375 13.2555 36.5272 0.150194 0 -3.50139 -0.333723 -0.838045 -0.431637 0.822553
10.0931 4.03275 33.6729 0.567106 -0.210485 -1.3 0.815917 -0.572933 -0.0776364 0.999892
9.624 8.22188 31.7397 -0.0120957 0 -0.964477 0.0880416 0.972088 -0.217471 0.999758
13.6032 12.3921 20.1517 0.166008 0 3.8 -0.325386 -0.897966 0.296278 -0.066888
8.3755 11.1453 19.6181 0.0503336 0 3.8 0.788469 -0.130943 0.600974 0.186973
16.4635 15.8274 19.9549 0.168997 0 3.8 0.545706 0.812901 -0.203463 -0.186512
9.9605 15.5676 31.1011 0.802619 0 1.9 -0.184952 -0.971172 -0.150392 0.10323
11.5775 8.72213 31.3939 0.148555 0 3.8 -0.213573 0.894597 -0.392533 0.1878
9.75031 11.3309 38.903 1.97116 0 -3.9 0.0372606 -0.993242 -0.109919 0.0426183
16.7841 9.79912 19.2599 -0.233249 0 -0.7 -0.796452 0.229201 -0.559581 0.184819
7.4835 13.0099 22.0383 0.351568 0 4.5 0.44172 -0.858096 0.26183 0.891809
15.6054 12.242 28.481 -0.167187 -0.00308269 -1.3 -0.711402 -0.574682 -0.404535 0.793527
8.19169 8.01869 12.5376 0.238116 0 -3.2 0.580337 0.163288 -0.797838 0.0676544
13.5098 0.90175 17.2924 1.42994 0 -1.3 0.456161 -0.709486 -0.537166 -0.458627
14.0812 12.9487 15.3977 0.0655247 0 3.8 0.610636 -0.382625 -0.693341 -0.999854
9.48969 12.2968 34.8702 -0.268815 -0.665884 -1.3 -0.508915 -0.418783 -0.752081 -0.200411
8.58156 8.31781 17.2362 0.792758 -0.15796 -1.3 0.947404 -0.0259433 0.318986 0.999734
18.5839 7.13844 17.8882 0.246065 0 -0.7 0.110827 -0.165912 -0.979893 -0.379975
11.9786 5.15837 31.2805 0.0503989 0 3.8 0.398933 -0.102632 0.911218 0.524502
21.6205 7.07425 20.3705 -0.638573 -0.361731 -0.7 0.814763 0.142638 -0.561974 -0.999845
15.9114 11.0661 37.63 -0.685033 0 -1.6 0.0287328 -0.794763 0.60624 0.999909
11.024 11.2375 41.4495 4.58261 0 -3.9 0.627228 -0.769933 0.117428 -0.999864
10.4667 15.0111 14.875 -0.766699 -0.0838221 4.2 0.297509 0.329336 -0.896118 0.361566
8.4115 7.19063 18.3487 -0.00898003 0 -0.480339 0.805282 0.455271 0.379801 0.581649
12.5396 6.4735 23.7899 0.245047 0 4.2 -0.494554 0.707029 -0.505496 0.08223
15.698 9.4785 27.085 -0.272354 0 3.8 -0.850856 0.525373 -0.00514227 0.179431
11.0202 1.42125 15.8716 -0.0605131 0 -1.3 0.524157 -0.615045 -0.58905 0.193915
8.21206 10.7746 40.3937 2.22227 0 -3.9 -0.188609 -0.981844 -0.0202147 -0.777766
9.504 4.825 36.6255 -0.718481 -0.298462 -1.3 -0.274638 -0.08557 0.957733 -0.999829
19.1935 3.22125 19.7614 -0.932848 -0.80309 -1.6 0.340159 -0.933395 -0.114305 -0.999782
10.2916 6.25138 17.501 0.398989 0 -1.3 0.514226 0.824757 0.235259 -0.0707278
8.882 16.2843 14.5633 1.01316 -0.467445 1.65149 0.297207 0.138653 -0.944692 0.999899
5.90575 8.89225 27.5509 0.109287 -0.576786 4.2 0.760894 0.615814 0.204482 0.839435
15.6613 5.27588 17.0149 0.391078 0 -1.6 0.0468212 0.303304 -0.951743 -0.830892
12.2339 13.9699 21.1794 -0.107674 0 3.63355 0.0203467 -0.889107 0.457246 0.999825
10.9137 4.5695 35.845 -1.73492 -0.266925 -1.3 0.560991 -0.627474 0.539968 -0.999858
8.56662 15.5623 32.483 -0.0430031 0 2.8 0.251204 -0.925001 -0.285078 0.99978
11.4049 12.7346 34.2096 -0.0467813 -0.00544879 -1.42537 -0.587957 -0.11427 -0.80078 0.88706
4.22113 9.86675 34.4294 0.396176 -0.0554562 -0.475853 0.466821 -0.225627 0.855085 0.229193
5.1285 11.684 34.0291 -0.22928 -0.239746 -0.19202 0.913479 -0.219168 0.342814 0.211622
15.4471 2.68175 17.5557 0.285948 0 -1.6 0.466628 -0.532048 -0.706529 -0.315308
12.4915 14.4257 25.2537 -0.282727 0 1.9 -0.589921 -0.807263 -0.0178695 0.471575
20.206 13.0813 22.1173 0.452827 0 1.55001 0.572895 0.46569 -0.67448 -0.999881
11.3091 13.719 39.9264 1.77122 0 -1.54429 0.678098 -0.182614 0.711924 0.381614
16.3598 10.2854 28.8258 -1.12067 0 -1.3 -0.86801 0.240371 -0.434489 0.999891
9.05956 16.047 29.5156 0.485078 0 1.9 0.22309 -0.968334 0.112069 0.908971
10.7501 5.74619 23.0589 0.192884 0 3.8 0.0800519 0.918985 -0.386081 -0.0772116
15.2639 12.1837 19.1038 0.131038 0 3.8 -0.0971365 -0.6842 -0.722797 -0.0942235
11.5588 10.6681 33.8473 0.325183 0 1.65502 -0.648585 0.324266 -0.688614 0.350415
7.55944 8.3075 26.5527 0.486607 0 4.2 0.545149 0.812563 0.206284 -0.0766995
8.44294 11.6038 37.9263 0.735128 0 -3.9 -0.206932 -0.891422 -0.40317 -0.140985
6.18025 9.204 11.931 -2.16945 -0.504033 -3.2 0.0164336 0.216332 -0.976182 -0.999865
11.4211 14.1057 22.6932 0.0478112 0 2.87953 -0.146357 -0.942829 0.299422 0.0156503
14.7959 10.0393 29.5613 0.603568 -0.289554 1.99306 -0.796056 0.330278 -0.50716 0.0753513
17.4134 13.6449 18.4697 0.078829 0 3.8 0.36854 0.0450552 -0.92852 -0.823977
14.6958 19.2055 24.272 -0.0436177 0 -0.8 0.835047 -0.0663153 -0.546167 0.999876
16.9258 2.21887 21.7859 0.151986 -0.0138225 0.0429052 0.634035 -0.642768 -0.429942 -0.999902
13.6319 7.93506 23.7834 0.325814 0 4.2 -0.751707 0.632065 -0.188228 -0.441576
6.19012 8.98388 30.0989 1.61553 0 -0.824015 0.792567 0.485395 -0.369092 0.480655
7.38513 12.2745 41.4969 1.44209 -0.0285089 -3.69305 -0.532507 -0.774804 0.340757 0.999884
12.032 15.1038 39.9881 1.37623 0 -1.3 0.488159 -0.0909677 0.868001 -0.999921
14.8733 11.709 38.5855 -0.797681 -0.636116 -1.6 0.0513053 -0.740851 0.669707 -0.999801
2.22388 10.8422 37.6343 -0.211966 -0.835273 -0.669951 0.351821 -0.830535 0.43178 0.999885
14.1956 6.67981 33.4422 0.0296436 0 3.8 0.193281 -0.980933 0.0203243 0.143282
17.1838 14.6188 24.0154 10.013 0 3.8 0.388988 0.824095 -0.411773 0.52385
10.4289 3.10063 11.422 -1.69604 -0.797609 -3.2 0.980235 0.19361 0.0406862 -0.999846
7.975 12.949 25.322 0.230052 0 4.5 0.759052 -0.611261 0.224054 -0.999753
16.0461 18.2375 25.4316 -0.0474014 0 -0.8 0.454326 -0.075329 -0.887645 0.999881
10.7937 6.83413 36.3459 0.111855 0 -0.054227 0.00966621 0.0510695 0.998648 -0.115473
13.9659 13.5267 24.1878 0.482026 0 1.9 -0.638127 -0.759756 -0.124759 0.357124
11.3054 11.4349 38.8538 0.815026 0 -1.3 0.214876 -0.851698 0.477952 -0.163296
10.1101 4.50562 13.7073 1.14828 0 -2.36531 0.894474 0.0808459 -0.439751 0.175685
12.2238 6.788 25.57 0.201125 0 4.18263 -0.350365 0.914231 -0.203536 0.254278
11.247 12.7955 20.139 0.205334 0 3.8 0.0725649 -0.894568 0.441002 -0.0430233
14.2899 18.7809 22.2966 -0.317663 0 1.95737 0.964902 0.232483 0.122129 0.999863
10.5474 7.141 26.8136 0.278064 0 3.8 0.15646 0.931541 -0.328256 0.16823
8.09638 9.29419 34.2523 1.67541 0 -1.3 -0.0966188 0.887891 0.449794 -0.247837
21.3509 9.08988 21.2644 -1.14437 -0.21934 -0.7 0.590999 0.471405 -0.654597 0.999861
2.03437 8.37375 34.8218 -0.0356599 -0.0421476 -0.501148 0.512981 -0.48635 0.707329 0.999863
10.5965 8.61125 29.4501 0.241365 0 3.8 -0.0572674 0.968156 -0.243709 -0.759546
18.2593 3.51625 22.2599 0.143456 -0.169559 0.0175383 0.538496 -0.842552 0.0112856 0.999848
10.0042 11.9159 18.1477 0.00838154 0 3.80575 0.470724 -0.758413 0.450808 0.430438
15.7198 11.3418 23.104 -0.0742159 -0.13584 3.2734 -0.946349 -0.311618 0.0855463 0.999757
13.5452 17.0842 18.6004 -0.166555 0 3.36381 0.731794 0.549384 -0.403304 0.999865
10.8483 14.5605 33.8431 -0.150872 0 -1.3 -0.492439 -0.530455 -0.690015 0.99982
14.7679 6.63597 20.7001 1.42786 0 -1.6 -0.55037 0.767401 -0.32892 0.0931208
14.0371 3.94009 16.8261 -0.0370444 0 -1.51653 0.361624 0.298991 -0.883081 -0.124879
13.6296 8.42634 30.7295 -0.0171867 0 3.8 -0.519583 0.753633 -0.40258 0.999841
6.77156 9.734 25.4057 0.335497 0 4.2 0.875101 0.482061 0.0426181 -0.0755939
11.0274 16.8913 15.1558 1.10302 0 -0.8 0.29969 0.176255 -0.937614 -0.999873
16.896 9.9175 36.1635 -0.971363 -0.18664 3.8 0.251358 -0.502947 0.826961 0.999837
15.4394 14.7686 18.4667 0.0421164 0 3.8 0.670992 0.311782 -0.672727 0.166245
13.9955 8.13097 36.6731 0.252475 0 3.8 0.15831 -0.275273 0.948242 -0.499011
10.4509 15.2754 23.836 -0.0574867 0 2.49741 0.0630453 -0.873828 0.482131 0.999811
16.2787 7.29653 20.4869 4.22608 -0.714644 -0.117999 -0.835054 0.330735 -0.439658 0.648145
6.56075 6.10625 33.8493 -0.159448 0 -1.3 -0.506665 -0.161147 0.846949 0.618448
15.4412 17.1308 20.7218 1.40618 0 2.8 0.779715 0.594726 -0.195822 -0.999756
7.41612 8.16941 23.029 0.360352 0 3.8 0.86972 0.493204 0.0183573 0.282538
8.777 13.2259 13.4235 0.53364 0 3.33478 -0.0534473 0.523771 -0.850181 0.246475
8.82512 10.0107 18.2019 1.00551 0 3.86971 0.897298 -0.272011 0.347658 0.250344
6.34694 11.6793 24.9822 0.379114 0 4.5 0.922619 -0.321073 0.213741 0.254524
15.1521 12.2742 26.8025 0.396335 -0.104779 1.9 -0.705168 -0.67614 0.21348 0.28653
13.5347 14.9091 15.5488 0.0516973 0 3.8 0.532697 0.285161 -0.796817 -0.570355
4.64256 5.30613 33.5268 0.385805 -0.65877 -0.8 0.0607475 -0.0726595 0.995505 0.999906
11.5777 4.43531 14.9757 0.267265 0 -1.3 0.652046 0.328587 -0.683277 -0.401561
9.12387 6.82991 13.4429 0.183457 -0.00616308 -2.34132 0.851209 0.339172 -0.400506 0.232598
19.9089 13.5216 24.3359 4.56987 0 -0.7 0.430136 0.836456 -0.339594 0.999825
7.56572 15.289 31.0595 -0.0281353 0 4.16895 0.580929 -0.813896 -0.00973406 0.607828
12.0549 5.80744 34.338 -0.0982835 0 3.8 0.510846 -0.840493 -0.180575 0.269111
13.8926 13.4669 39.3631 0.73572 0 -1.20219 0.150699 -0.310221 0.938644 -0.999842
15.5801 9.90125 25.041 -0.809525 -0.012317 2.0245 -0.981686 0.180235 0.0617096 0.300153
5.37309 12.0946 31.7208 0.0098807 -0.553493 -1.3 0.991286 -0.116475 -0.0615258 0.426802
12.4949 6.76288 31.769 0.00162546 0 3.8 0.322399 -0.882847 0.341527 0.999859
9.73075 8.78487 14.1311 -0.235678 -0.09572 1.39066 0.873957 -0.388869 -0.291515 -0.0562013
8.29291 6.81166 20.3684 0.278452 0 3.8 0.935319 0.338252 0.10375 0.404349
7.13794 9.80656 31.7071 0.875225 0 -1.3 0.549675 0.803675 -0.227959 -0.249269
6.45644 13.2068 27.1822 0.334843 0 4.5 0.729268 -0.623003 0.282903 0.579219
6.85872 11.5362 38.427 0.644584 0 -3.9 -0.131588 -0.977179 -0.166752 -0.222937
6.36212 11.8084 22.5553 0.334054 0 4.41082 0.894036 -0.417649 0.162078 0.737662
13.0485 1.828 15.9419 0.20717 0 -1.3 0.441382 -0.335207 -0.832357 -0.660578
9.77994 11.345 36.8479 -1.11448 0 -1.3 -0.496679 -0.865388 0.0664327 0.0792811
6.42431 8.08381 34.5337 0.0519128 0 -1.3 -0.377604 0.0376645 0.925201 -0.247613
14.9008 10.7819 21.5918 0.144248 0 3.8 -0.848291 -0.528743 -0.0288704 -0.337974
8.48553 7.51472 28.3963 0.513817 0 4.1793 0.0250554 0.985882 -0.165557 0.502439
9.705 1.48662 13.3675 0.00311814 0 -0.7 0.934 -0.201886 -0.294764 0.999865
5.56831 12.1442 29.3 0.317219 0 2.07271 0.928734 -0.365401 -0.0627336 0.330294
5.28856 11.1163 26.8484 0.363297 0 3.67403 0.940983 0.0806377 0.328709 0.884073
10.994 15.119 26.6086 -1.00718 0 1.9 -0.165917 -0.982984 0.0788329 0.246731
9.78172 9.41209 35.3588 0.272332 0 -1.3 -0.682915 0.374484 0.627207 -0.0937337
15.4258 8.99025 22.2941 0.755397 0 4.2 -0.909668 0.218534 -0.353194 0.174033
4.66044 11.5756 37.8679 0.136385 0 -3.37149 0.307482 -0.95024 0.0499931 -0.0753922
15.1754 4.12875 30.9167 0.208212 0 3.8 -0.133349 -0.0910336 0.986879 -0.999887
5.402 12.6125 14.1804 0.550776 0 -0.8 -0.495361 0.291904 -0.818175 -0.999834
19.8072 8.41469 18.0916 0.0548904 0 -0.7 0.694202 0.179107 -0.69714 -0.653736
12.0245 12.7127 14.7984 -0.0282895 0 4.2 0.859466 -0.276491 -0.429967 -0.0413065
13.8939 12.0495 17.5058 0.151441 0 3.8 0.378398 -0.917432 -0.123017 -0.381188
12.5857 4.94331 20.6877 -0.114197 0 -1.33845 -0.334278 0.942472 -0.00203723 0.593338
9.02291 12.4832 20.0318 -0.0223698 0 4.5 0.357848 -0.803891 0.475083 0.452537
10.4758 4.68791 21.0988 0.21438 0 0.483342 0.266293 0.963021 -0.0409786 0.812909
16.921 6.45262 18.1542 1.29676 0 -1.32293 0.00168314 0.454675 -0.890656 0.0608096
15.6579 15.192 22.8452 0.711491 0 2.8 0.742568 0.647378 0.171739 0.8369
7.23688 14.7277 13.5936 0.249518 0 -0.8 0.15843 0.183386 -0.970191 -0.999865
8.49691 9.10559 20.2708 0.339735 0 3.8 0.927952 0.147633 0.342212 -0.508308
15.7111 2.32881 19.8302 0.065218 0 -1.6 0.548013 -0.812024 -0.200743 0.418772
15.0346 6.56084 32.1533 -0.0940927 0 3.8 -0.254124 -0.807566 0.532221 0.450546
11.4785 15.6109 29.0451 -0.116058 0 1.9 -0.42629 -0.894897 0.132044 0.717288
14.0597 10.528 31.7402 -0.475062 0 0.933084 -0.816757 0.0325767 -0.576061 0.844606
5.0225 9.7525 13.3175 -0.632855 -0.536084 -2.33395 -0.661173 0.339471 -0.669036 -0.999845
12.2867 10.4219 36.6694 2.33238 0 -0.815985 -0.193497 -0.580413 0.790999 0.363885
6.25516 9.76384 23.1593 0.330164 0 3.86377 0.92832 0.317762 0.192998 0.999778
14.9766 16.4508 25.0358 0.846032 0 1.9 0.699592 0.380106 -0.605054 0.999833
6.61275 13.6692 33.358 0.746628 0 2.8 0.554974 -0.812004 -0.180703 0.188432
18.7802 13.7264 20.4769 0.18729 0 3.8 0.79798 0.544731 -0.25787 -0.212583
20.643 4.91581 20.0657 -0.838246 -0.599657 -1.46415 0.53323 -0.184021 -0.825713 0.999841
17.4724 11.3709 19.4858 -0.255018 0 0.456922 0.360527 0.312094 -0.878987 0.0515717
2.199 9.08875 36.1772 0.280017 0 -0.4 0.59306 -0.64266 0.485044 -0.99988
5.461 12.4815 40.934 0.350754 0 -3.9 -0.0797989 -0.94658 0.31244 0.999849
3 214 12 72
3 12 214 182
3 72 12 154
3 72 51 214
3 182 214 37
3 154 12 182
3 240 72 154
3 72 258 51
3 214 51 124
3 214 223 37
3 195 182 37
3 165 154 182
3 258 72 240
3 154 206 240
3 258 96 51
3 51 108 124
3 214 124 50
3 138 223 214
3 195 37 223
3 16 182 195
3 165 206 154
3 165 182 86
3 112 258 240
3 240 206 92
3 258 119 96
3 96 109 51
3 109 108 51
3 166 124 108
3 124 157 50
3 50 138 214
3 41 223 138
3 242 195 223
3 86 182 16
3 195 86 16
3 63 206 165
3 86 147 165
3 112 158 258
3 240 97 112
3 92 206 22
3 97 240 92
3 158 119 258
3 62 96 119
3 109 96 62
3 259 108 109
3 157 124 166
3 259 166 108
3 138 50 157
3 111 223 41
3 138 5 41
3 235 195 242
3 223 170 242
3 195 235 86
3 22 206 63
3 165 147 63
3 116 147 86
3 158 112 106
3 112 97 106
3 179 92 22
3 179 97 92
3 119 158 220
3 54 62 119
3 47 109 62
3 109 47 259
3 138 157 166
3 259 200 166
3 223 111 170
3 111 41 110
3 166 5 138
3 110 41 5
3 242 59 235
3 170 198 242
3 86 235 116
3 22 63 123
3 63 147 186
3 147 116 186
3 220 158 106
3 106 97 229
3 179 22 231
3 97 179 229
3 220 149 119
3 54 197 62
3 149 54 119
3 47 62 197
3 58 259 47
3 200 259 58
3 200 5 166
3 185 170 111
3 185 111 110
3 5 42 110
3 59 242 122
3 59 160 235
3 198 170 21
3 207 242 198
3 235 160 116
3 63 250 123
3 22 123 231
3 63 186 250
3 186 116 61
3 220 106 19
3 229 238 106
3 231 213 179
3 213 229 179
3 149 220 264
3 18 197 54
3 54 149 18
3 150 47 197
3 58 47 161
3 120 200 58
3 42 5 200
3 185 137 170
3 188 185 110
3 110 42 192
3 122 242 207
3 122 267 59
3 59 267 160
3 21 170 137
3 198 21 249
3 198 252 207
3 160 248 116
3 250 17 123
3 231 123 17
3 194 250 186
3 116 248 61
3 61 194 186
3 238 19 106
3 220 19 264
3 239 238 229
3 231 262 213
3 213 239 229
3 149 264 18
3 18 128 197
3 150 161 47
3 128 150 197
3 161 120 58
3 200 120 42
3 185 159 137
3 185 188 11
3 188 110 192
3 42 120 192
3 27 122 207
3 267 122 3
3 160 267 167
3 21 137 81
3 21 81 249
3 80 198 249
3 252 198 48
3 207 252 27
3 248 160 204
3 117 17 250
3 231 17 35
3 194 117 250
3 248 98 61
3 194 61 98
3 224 19 238
3 224 264 19
3 239 100 238
3 262 231 35
3 201 213 262
3 213 201 239
3 264 128 18
3 128 161 150
3 95 120 161
3 11 159 185
3 137 159 81
3 76 11 188
3 192 236 188
3 192 120 115
3 122 27 130
3 122 130 3
3 267 3 246
3 167 267 265
3 204 160 167
3 249 81 251
3 48 198 80
3 0 80 249
3 252 48 146
3 252 130 27
3 90 248 204
3 35 17 117
3 117 194 212
3 248 247 98
3 99 194 98
3 171 224 238
3 152 264 224
3 100 239 145
3 171 238 100
3 255 262 35
3 201 262 210
3 201 162 239
3 264 113 128
3 241 161 128
3 95 115 120
3 95 161 241
3 159 11 43
3 81 159 251
3 11 76 43
3 76 188 162
3 26 236 192
3 162 188 236
3 26 192 115
3 3 130 246
3 25 267 246
3 267 60 265
3 167 265 46
3 118 204 167
3 249 251 0
3 48 80 146
3 143 80 0
3 20 252 146
3 266 130 252
3 248 90 127
3 90 204 36
3 35 117 255
3 212 194 99
3 255 117 212
3 247 248 127
3 98 247 13
3 13 99 98
3 171 228 224
3 107 264 152
3 228 152 224
3 239 162 145
3 100 145 171
3 210 262 255
3 210 6 201
3 201 6 162
3 113 264 15
3 233 128 113
3 233 241 128
3 115 95 228
3 95 241 189
3 159 43 87
3 87 251 159
3 43 76 6
3 6 76 162
3 91 236 26
3 91 162 236
3 228 26 115
3 266 246 130
3 190 267 25
3 246 132 25
3 190 60 267
3 60 155 265
3 46 265 118
3 118 167 46
3 209 204 118
3 102 0 251
3 80 199 146
3 80 143 83
3 143 0 102
3 40 252 20
3 146 153 20
3 252 40 266
3 215 127 90
3 204 196 36
3 36 215 90
3 129 212 99
3 129 255 212
3 215 247 127
3 226 13 247
3 99 13 226
3 91 228 171
3 264 107 15
3 107 152 38
3 79 152 228
3 162 91 145
3 171 145 91
3 227 210 255
3 210 43 6
3 15 107 113
3 233 113 163
3 261 241 233
3 95 189 228
3 241 24 189
3 87 43 210
3 227 251 87
3 26 228 91
3 266 132 246
3 25 132 190
3 28 60 190
3 28 155 60
3 219 265 155
3 253 118 265
3 196 204 209
3 209 118 253
3 227 102 251
3 199 80 217
3 199 153 146
3 83 143 49
3 80 83 217
3 136 143 102
3 40 20 142
3 68 20 153
3 29 36 196
3 29 215 36
3 103 129 99
3 227 255 129
3 215 135 247
3 226 247 56
3 103 99 226
3 38 152 151
3 243 107 38
3 152 79 151
3 79 228 189
3 210 227 87
3 107 230 113
3 113 230 163
3 233 163 121
3 31 241 261
3 183 261 233
3 24 241 181
3 189 24 234
3 177 265 219
3 253 265 177
3 253 187 209
3 102 227 136
3 232 199 217
3 232 153 199
3 103 49 143
3 49 217 83
3 103 143 136
3 142 20 68
3 68 153 256
3 202 215 29
3 136 129 103
3 136 227 129
3 135 215 202
3 247 135 8
3 56 247 32
3 226 56 84
3 218 103 226
3 151 191 38
3 107 243 230
3 243 38 175
3 234 151 79
3 234 79 189
3 230 140 163
3 121 163 140
3 121 183 233
3 181 241 31
3 31 261 205
3 261 183 174
3 24 181 141
3 141 234 24
3 104 177 219
3 263 253 177
3 1 187 253
3 217 73 232
3 126 153 232
3 49 103 218
3 184 217 49
3 68 256 142
3 256 153 126
3 144 135 202
3 135 211 8
3 32 247 8
3 84 56 32
3 226 84 10
3 125 218 226
3 151 64 191
3 191 268 38
3 52 230 243
3 268 175 38
3 243 175 52
3 234 64 151
3 172 140 230
3 121 140 134
3 134 183 121
3 181 31 205
3 82 205 261
3 222 174 183
3 82 261 174
3 181 148 141
3 93 234 141
3 177 104 263
3 263 1 253
3 1 263 187
3 184 73 217
3 73 139 232
3 232 139 126
3 184 49 218
3 256 193 142
3 256 126 85
3 144 254 135
3 254 211 135
3 8 211 32
3 211 84 32
3 33 10 84
3 125 226 10
3 125 4 218
3 191 64 9
3 52 269 230
3 64 234 75
3 70 140 172
3 269 172 230
3 140 70 134
3 134 156 183
3 66 181 205
3 82 203 205
3 222 183 156
3 82 174 133
3 181 66 148
3 93 208 234
3 93 141 65
3 101 263 104
3 263 168 187
3 237 73 184
3 73 237 139
3 126 139 105
3 178 184 218
3 169 193 256
3 74 142 193
3 126 105 85
3 85 94 256
3 245 211 254
3 14 84 211
3 164 10 33
3 84 14 33
3 10 164 125
3 4 125 39
3 4 44 218
3 216 9 64
3 234 208 75
3 75 216 64
3 45 156 134
3 205 34 66
3 203 82 133
3 203 55 205
3 156 173 222
3 148 66 221
3 93 30 208
3 93 65 30
3 101 180 263
3 168 263 180
3 237 184 178
3 139 237 77
3 139 89 105
3 178 218 44
3 23 169 256
3 23 256 94
3 33 211 245
3 14 211 33
3 164 33 260
3 164 39 125
3 208 216 75
3 156 45 173
3 34 205 55
3 34 221 66
3 203 67 55
3 221 114 148
3 208 30 216
3 139 77 89
3 245 260 33
3 45 2 173
3 55 176 34
3 34 176 221
3 67 71 55
3 221 88 114
3 57 260 245
3 71 176 55
3 225 221 176
3 221 225 88
3 114 88 53
3 71 257 176
3 257 225 176
3 131 88 225
3 88 131 53
3 7 257 71
3 225 257 78
3 131 225 78
3 131 69 53
3 7 244 257
3 78 257 244
3 78 244 131
3 244 69 131
