ply
format ascii 1.0
comment Generated by PyMesh
element vertex 259
property float x
property float y
property float z
property float charge
property float hbond
property float hphob
property float nx
property float ny
property float nz
property float si
element face 447
property list uchar int vertex_indices
end_header
-7.0755 1.584 9.3625 1.66579 0 -3.9 0.150885 0.608961 -0.778717 0.999967
-25.3748 10.512 0.0195 0.156539 0 -1.3 0.877921 -0.215038 0.427801 -0.9999
-27.6273 10.1053 2.87775 -1.31073 -0.582963 -1.3 0.641504 0.171929 0.747605 -0.273218
-19.6273 5.75575 24.8832 -0.881275 0 -1.3 -0.832035 -0.348558 0.431537 0.999905
-7.672 0.5515 8.4395 2.51243 0.340301 -3.9 -0.23213 0.876437 -0.421869 0.999806
-12.594 -0.5965 15.136 0.350244 0.417363 -0.7 0.673021 -0.475565 -0.566463 0.62928
-24.3471 5.334 5.18775 -0.622962 0 1.8 -0.0128496 0.0444923 -0.998927 -0.660479
-18.2525 8.1915 14.4377 -2.13208 -0.634387 -3.5 -0.867484 0.265534 0.42067 0.9001
-23.6859 5.2945 11.2087 -1.86194 0 1.65107 -0.905408 0.318652 0.280531 -0.10149
-25.9181 6.78575 6.30825 -0.505541 -0.124127 0.89409 -0.460329 0.54982 -0.69699 -0.481475
-8.55075 -2.67725 12.4285 -0.195427 -0.723319 -0.7 -0.828093 -0.312825 0.46519 0.999921
-14.7621 -2.75113 9.88675 -0.437319 0 1.41666 0.621537 -0.611453 -0.489711 -0.821877
-18.3641 9.71675 14.6861 -2.20045 -0.0690669 -3.5 -0.899029 -0.30117 0.317872 0.726415
-9.84575 8.4385 11.847 -0.349686 0 1.12282 -0.864511 0.0568267 -0.49939 -0.999899
-12.743 -3.60575 5.59487 1.11743 -0.478268 4.5 -0.868795 -0.312212 0.384343 -0.999851
-19.294 4.256 24.745 -0.796378 0 -1.00024 -0.736607 -0.642092 0.212433 -0.999858
-17.226 0.4575 23.9185 -0.402114 0 -0.7 -0.774002 0.292416 0.561618 0.999882
-9.051 -0.09175 15.5372 -0.0827885 0 -0.7 -0.477613 -0.863485 -0.162108 0.999883
-20.8225 7.66062 22.0508 -1.52078 -0.221159 -3.5 -0.624161 -0.301814 -0.720647 -0.837462
-17.5907 1.91825 9.27775 -0.710949 0 4.2 -0.210331 0.186928 -0.959593 0.707544
-17.0308 8.38962 20.3072 -2.15261 -0.617297 -3.5 -0.97254 0.229706 0.0374295 0.18728
-27.205 7.171 -0.05375 -0.344455 -0.659069 -1.3 0.76667 -0.512186 0.387148 0.999851
-16.4551 9.6725 20.9385 -1.05764 0 2.8 -0.747748 0.654558 -0.111474 0.204645
-15.2066 10.8295 21.5982 -0.423426 0 2.8 -0.637431 0.760035 -0.126604 0.999909
-29.63 11.5332 4.08975 1.08307 0.434866 -3.88235 0.798994 0.470267 0.374777 -0.999897
-8.3825 -1.021 14.176 0.0593736 0 -0.7 -0.793719 -0.551004 0.257691 0.999905
-14.1663 2.9015 11.9878 -0.338159 0 -3.9 0.948384 0.207339 -0.239955 0.336777
-22.0814 7.40637 12.313 -1.6223 0 1.9 -0.628995 0.634946 0.448563 -0.260944
-11.7441 5.06687 13.0364 -1.06258 -0.00841099 -3.9 -0.457842 -0.178313 -0.870968 0.0534642
-30.9105 6.641 2.825 -0.233436 0 -3.5 0.202451 -0.943672 0.261721 0.999867
-18.2003 -0.92275 23.7505 -0.540609 0 -0.7 -0.636659 0.459297 0.619445 0.999901
-21.4799 2.07363 15.005 -1.45535 0 -3.5 -0.931511 -0.313453 0.184482 0.314317
-21.9177 -7.149 12.7183 -1.37767 0 -0.687117 -0.827988 -0.55079 -0.105196 -0.999869
-11.9062 3.61188 14.0049 -0.76413 -0.156043 -1.4552 -0.238905 -0.380232 -0.893503 0.512629
-9.14875 -0.808 12.621 0.0207267 -0.273987 -0.449823 -0.882732 -0.373456 0.285157 -0.07123
-21.5728 -1.53612 18.7157 -3.0847 -0.02707 -3.5 -0.620781 0.38605 0.682346 0.320096
-8.17025 0.791 6.83175 4.03561 0 -3.9 -0.161966 0.9238 0.346931 0.999851
-13.2175 -0.116875 13.7906 0.0172443 0 -0.479787 0.93149 -0.151731 -0.330611 0.0919141
-18.4377 -5.4675 14.3827 -2.66106 -0.245119 -3.5 0.405636 -0.881083 0.243213 0.999849
-20.4894 -4.92562 18.1691 -0.903092 0 3.8 -0.276708 -0.865094 0.418383 -0.999909
-25.7188 12.134 0.693 0.101441 0.11801 -1.91824 0.768476 0.0982933 0.632284 -0.999904
-13.1415 11.2165 14.3885 -0.963783 -0.00701682 2.64034 0.338771 0.0951024 -0.93605 0.999867
-17.0705 7.07 9.4405 -1.11107 0 2.90416 0.763818 0.189626 -0.616947 -0.092927
-21.5417 8.76525 10.9923 -0.615823 0 1.9 -0.749113 0.651821 0.118149 -0.999576
-16.2835 -2.18438 8.72019 -0.432481 0 3.8 -0.0140251 -0.673348 -0.739193 -0.535015
-16.5791 -4.58994 14.3833 -1.14565 0 2.8 0.908263 -0.338674 0.24568 0.490772
-22.549 -5.642 13.4318 -1.10553 0 -0.4 -0.810055 -0.5602 0.173164 -0.165099
-29.3576 9.99525 6.78056 0.280573 0 0.310385 0.361172 0.706129 0.609046 -0.914991
-9.07288 1.33238 5.67175 1.95772 0 -3.9 -0.436243 0.888897 0.139836 -0.999877
-16.9185 12.9917 12.4495 -0.224218 0.705649 -3.5 0.422895 0.780166 -0.460979 -0.444823
-12.8298 -1.3285 4.93937 1.11992 0 0.0823887 -0.888659 0.394576 -0.233655 -0.999851
-9.89038 1.75487 11.6367 0.0987923 0 -3.9 -0.752624 -0.1887 -0.630832 -0.410403
-26.7251 3.74644 7.96287 -1.21506 0 -0.7 -0.858795 -0.510546 -0.0425896 -0.382352
-20.1654 -6.80075 9.51838 -1.2244 0 1.51515 -0.153128 -0.647693 -0.746355 -0.999838
-25.9055 7.57188 7.8775 -0.318673 0 1.8 -0.360528 0.929258 0.0806181 -0.463772
-21.36 9.561 22.4177 -0.97724 0 3.12474 -0.519029 0.144927 -0.842381 -0.999902
-13.8085 -0.92825 10.1097 -0.0255208 -0.00317859 -0.4 0.877111 -0.211679 -0.431124 -0.901191
-24.1596 6.87838 5.49681 -0.492233 0 1.8 -0.213972 0.280084 -0.935825 -0.505764
-13.1801 -0.185875 11.3483 -0.149594 0.744025 -0.4 0.991468 0.0225749 -0.128384 -0.647067
-17.4312 -7.51781 11.7191 -1.04174 -0.356801 -1.08117 0.427387 -0.8972 -0.111232 -0.999846
-20.1876 4.857 23.0769 -0.890689 0 -3.58241 -0.927874 -0.365964 -0.0715534 -0.732088
-30.0215 10.968 5.4735 0.632607 -0.0719087 -3.29061 0.496732 0.727567 0.473185 -0.999883
-21.1619 0.65675 18.78 -0.743545 0.215364 -3.65044 -0.736786 0.394686 0.548972 -0.37679
-14.7884 3.85538 10.5757 -0.596454 0 -3.72634 0.723249 0.483714 -0.49288 -0.388353
-9.31987 7.25362 10.8025 -0.0342922 0.312116 -3.5 -0.742067 0.0943906 -0.663647 -0.999881
-12.0675 10.1896 13.7075 -1.03726 0 2.8 -0.462096 -0.122414 -0.87834 -0.999876
-27.1185 8.67125 2.09963 0.534948 0 -1.3 0.789396 -0.402245 0.463738 -0.447253
-15.6407 -5.61275 10.9908 -0.805982 0 3.996 0.854102 -0.392407 -0.341359 -0.999867
-30.2721 5.88112 1.52213 -0.132946 0 -3.5 0.147815 -0.806489 0.572474 0.99992
-17.044 9.6705 19.3229 -1.33908 0 2.8 -0.816569 0.392858 0.42294 -0.183922
-23.2545 -1.25869 18.2168 -1.93529 -0.899328 -3.5 -0.512794 0.732344 0.448012 -0.999866
-9.5685 0.2795 11.5052 -1.17633 0 -0.4 -0.9991 0.0424253 0.000439325 0.16963
-9.94675 -4.6635 10.4548 0.193461 0 4.2 -0.81449 -0.101231 0.571278 -0.9999
-26.4502 6.87012 9.17838 -0.685156 0 1.8 -0.42935 0.50122 0.75129 -0.946133
-20.0064 4.21488 17.9722 -0.61845 0 -3.5 -0.725082 0.431298 0.536879 -0.750822
-17.0032 11.8806 10.5121 -0.85248 0 0.203227 0.460852 0.526842 -0.71418 -0.900226
-19.6159 -5.03538 9.21481 -0.995813 0 3.8 -0.0704639 0.154575 -0.985465 -0.760085
-17.4764 6.13275 8.24694 -0.480012 0 1.48545 0.751525 0.0876711 -0.653853 -0.584261
-10.5507 -5.581 8.84 0.596388 0 3.56352 -0.841761 -0.501901 0.198833 -0.999916
-10.6001 8.9905 13.2164 -0.77239 0 2.8 -0.70228 -0.0155632 -0.711731 0.99986
-12.1178 -3.85188 3.90425 1.21258 0 4.5 -0.861383 -0.389043 -0.326596 -0.999911
-17.94 3.43225 24.891 -0.789447 0 -0.7 -0.636738 -0.749535 0.181004 0.999856
-20.3624 11.8012 11.1099 -1.01621 0 2.8 -0.746244 0.127519 -0.653345 -0.999871
-24.4793 5.12644 9.85913 -1.21138 0 -0.7 -0.542636 0.210349 0.813203 0.314837
-22.6554 3.04869 14.3235 -1.85408 -0.419426 -3.21118 -0.846084 -0.401913 0.350153 -0.744641
-9.41663 3.5025 11.0865 0.401931 0 -3.9 -0.514683 -0.143114 -0.845352 -0.41543
-16.8834 1.96913 24.2304 -0.511194 0 -0.7 -0.845144 -0.392694 0.362661 0.99987
-20.3006 13.1003 12.6062 -0.985644 0.619545 -2.7003 -0.786215 0.612902 -0.0788513 -0.999862
-21.8651 1.28087 16.3083 -1.84094 -0.615846 -3.5 -0.962969 0.239297 -0.124205 -0.480714
-19.567 2.033 18.5338 0.679397 0 -3.9 -0.497191 0.400066 0.769902 0.601904
-14.4467 4.82912 12.0907 -0.33812 0.20306 -3.9 0.78426 0.150766 -0.601835 0.13159
-19.5883 -1.23844 10.6814 1.16556 0.034348 -3.9 -0.560963 -0.189347 -0.805896 0.577623
-20.612 6.732 24.2315 -1.17769 0 -1.3 -0.920747 -0.39016 -0.00116105 -0.99988
-28.8316 6.48675 2.00338 0.460441 0 -3.5 0.478611 -0.725752 0.494181 -0.341913
-17.7407 9.15038 22.0021 -1.12107 0 2.8 -0.39151 0.484442 -0.782327 0.199069
-25.117 3.7645 5.22675 -0.743612 0 1.88048 -0.324387 -0.336245 -0.884145 -0.99986
-17.1026 -3.18056 9.72913 -0.65594 0 3.8 0.0634444 -0.313574 -0.947442 0.0742378
-28.6957 9.615 4.50488 -1.46229 -0.00449129 -1.3 0.830118 0.489767 0.266519 0.061866
-19.2444 -3.20069 10.0816 -0.147675 0.119354 -3.9 -0.365926 0.235882 -0.900254 -0.0779959
-17.6501 14.2431 14.8841 -0.601342 0 2.8 -0.16135 0.974159 -0.158053 -0.999857
-17.3528 6.93931 21.4594 -2.65322 -0.275955 -3.5 -0.705701 0.268788 -0.655545 0.680922
-21.5713 8.2225 23.5592 -1.38494 -0.862262 -1.3 -0.855721 -0.454849 -0.246684 -0.999906
-13.3677 9.2225 14.4976 -0.756563 0 2.8 0.230466 0.192054 -0.953939 0.582182
-18.4518 13.7822 12.6143 -0.904131 0 2.8 -0.126172 0.957638 -0.258863 -0.60456
-25.9746 3.00775 9.25788 -1.40823 0 -0.7 -0.742261 -0.298692 0.59986 -0.612697
-28.7695 11.1093 2.5945 1.45636 0.634425 -3.9 0.509577 0.561924 0.651592 0.999897
-26.3255 10.0744 1.75063 0.121099 0 -1.3 0.790121 -0.100568 0.604644 -0.72146
-8.22425 4.97937 10.4143 0.211385 0 -3.9 -0.373673 -0.0959544 -0.922584 -0.999896
-19.0145 7.057 15.6121 -2.28086 -0.487642 -3.5 -0.650495 0.695458 0.305278 0.367161
-27.3476 12.094 2.04588 -0.999591 -0.881977 -3.5 0.472585 0.275425 0.83714 -0.999892
-13.4648 1.94431 13.8737 -0.605072 0 -0.4 0.733036 0.000560836 -0.68019 0.589344
-22.6257 7.00956 10.1362 -2.27855 0 1.9 -0.672204 0.617389 0.408622 0.3665
-26.1154 8.83438 -0.155125 0.0973341 0 -1.3 0.831774 -0.43635 0.343149 -0.99987
-23.2564 4.46613 13.4526 -1.85866 -0.78717 -0.7 -0.936836 -0.0896022 0.338097 -0.475473
-21.0577 8.96794 6.70575 -0.776557 0 3.8 0.352543 0.830112 -0.432004 -0.543901
-23.3956 -2.10969 15.2366 -1.08046 0.0836754 -3.0269 -0.8275 0.412361 -0.381054 -0.359767
-20.5465 -7.59925 11.9345 -1.08246 0 -0.7 -0.11117 -0.95426 -0.27754 -0.999772
-17.0853 10.3945 22.9527 -0.508645 0 2.8 -0.362902 0.714482 -0.598179 0.999916
-17.0344 10.1144 10.038 -1.73024 -0.0270474 3.01545 0.277337 0.315251 -0.90758 -0.378878
-14.9882 11.5725 19.7738 -0.582729 0 2.8 -0.677201 0.613653 0.405991 0.999866
-32.0716 6.63925 4.642 -0.491978 0 -3.5 0.00151628 -0.941159 0.337959 -0.999917
-22.7578 2.97137 12.3156 -2.26217 -0.351456 -3.35176 -0.730099 -0.486441 0.479928 0.226075
-19.684 -6.58388 14.988 -1.55908 -0.188865 -3.46174 0.672691 -0.739628 0.0208822 0.999925
-18.549 0.333625 22.4605 -1.03697 -0.828626 -0.7 -0.714183 0.524441 0.463577 -0.128556
-21.8032 -5.48144 9.798 -1.42881 -0.858903 -3.5 -0.643283 -0.0492802 -0.76404 -0.999871
-12.9685 -4.018 17.169 -0.466834 0 2.8 0.319676 -0.693023 -0.646163 -0.99989
-14.3881 -4.42825 17.6548 -0.437166 0 2.8 0.31675 -0.716431 -0.621608 0.999835
-22.9848 6.34931 13.1168 -1.65267 -0.432312 -0.818031 -0.782575 0.524911 0.334731 -0.853727
-9.89437 0.571625 13.7998 0.364246 0 -0.4 -0.802793 -0.584502 -0.117818 0.0887614
-25.0926 1.411 9.11413 -1.26619 0.110417 0.90379 -0.947513 -0.31969 0.00406382 -0.163577
-10.5599 6.98962 12.9184 -0.0521705 0 2.8 -0.691327 0.273874 -0.668625 0.306428
-14.8408 9.44312 13.6104 -0.454731 0 2.8 0.80686 0.127235 -0.576878 0.73647
-23.1545 -3.58156 13.6316 -0.618608 0.78107 -0.4 -0.969012 0.155999 -0.191521 -0.363978
-13.7331 -2.04656 13.5684 -0.0156258 0.882308 2.8 0.74891 -0.639711 -0.172926 -0.213214
-22.1701 -0.334062 9.32669 -0.278662 0.0540211 -3.9 0.101434 -0.92337 -0.370269 -0.561671
-21.7857 -6.82506 10.9676 -1.26043 0 -0.7 -0.720319 -0.610215 -0.329816 -0.81012
-17.9797 -1.35256 9.5035 -0.266297 0 -3.9 -0.56123 -0.356389 -0.746999 0.297825
-22.3478 -4.59056 17.6328 -0.935672 0 3.8 -0.393993 -0.788634 0.472044 -0.99987
-20.8813 2.63738 17.6386 -0.888853 -0.136515 -3.74254 -0.793199 0.299914 0.529987 -0.263933
-7.4935 3.11275 10.477 1.12555 0 -3.9 -0.459607 0.286796 -0.840541 0.999834
-20.8641 6.84188 14.3392 -2.90876 -0.382902 -3.5 -0.453362 0.707078 0.542681 -0.507998
-20.4511 -0.388938 13.3717 -3.97511 0 -3.5 -0.886154 0.261945 -0.382251 0.64765
-13.3693 3.86862 13.699 -2.53058 -0.369546 -3.9 0.520027 -0.189825 -0.83279 0.489564
-11.5307 -4.15688 8.28625 0.146475 -0.0122979 2.8 -0.948826 -0.187681 0.253977 -0.999791
-23.7366 8.865 8.22725 -0.728512 0.0366699 1.87266 -0.417097 0.790043 0.449291 -0.868495
-21.3818 -0.26875 14.8733 -1.60046 0 -3.5 -0.882674 0.22906 -0.410387 0.310657
-15.8959 8.22563 10.7251 -1.45111 -0.78871 3.02643 0.694221 0.0493387 -0.718069 -0.396665
-23.9081 -2.7125 18.6429 -1.41356 -0.0711765 2.81282 -0.548482 0.166681 0.819381 -0.999869
-20.6121 -2.706 11.5326 1.34227 0.0823719 -3.9 -0.639402 0.314385 -0.701661 0.280849
-14.8935 12.9284 14.4331 -1.1174 0 -3.5 0.509744 0.700569 -0.499364 -0.999878
-21.6663 -6.16725 14.7195 -1.03425 0 -0.4 -0.737714 -0.627173 0.249865 0.999922
-20.1408 7.74038 6.39988 -0.646085 0 3.8 0.530574 0.32029 -0.784796 -0.668726
-18.5294 5.62991 18.3646 -1.1002 0 -3.5 -0.815154 0.423069 0.395646 0.265534
-11.331 -3.248 7.027 0.951737 0 -0.4 -0.953456 -0.0160422 0.301106 0.212878
-28.6416 6.218 5.02825 0.0516768 0 -3.5 0.216135 -0.699743 -0.680915 -0.581483
-19.4268 8.52837 21.6237 -1.84048 -0.00637663 -3.5 -0.119042 0.119097 -0.985721 -0.640533
-18.743 6.59397 7.08509 -0.452354 0 3.8 0.627094 0.0202593 -0.77868 -0.650653
-18.3779 13.5051 16.505 -0.582915 0 2.8 -0.846929 0.252318 0.468025 -0.999849
-21.182 -2.91175 21.5012 -1.06894 0 3.8 -0.967018 0.238941 0.0882219 -0.999892
-27.5312 6.9105 8.0375 -0.282774 0 0.0166641 -0.19087 0.893077 0.407409 -0.203128
-20.028 6.394 22.481 -1.34367 -0.235308 -3.5 -0.715279 -0.246791 -0.653812 -0.0673487
-13.7876 2.07625 10.3283 -0.281205 0 -3.9 0.923221 0.248745 -0.292896 -0.837397
-9.5215 0.562 9.91 0.504379 -0.0291843 -2.39598 -0.702988 0.701975 -0.114187 -0.286885
-19.1612 3.82159 22.2073 -0.332328 0.256555 -3.50792 -0.746712 -0.662966 -0.0538236 -0.467333
-24.7752 -3.0665 16.9775 -1.18408 0.0347973 -2.15194 -0.867799 0.454959 -0.199841 -0.999874
-27.9816 8.79231 6.30466 -0.14434 0 0.412079 0.869357 0.465297 0.166483 -0.581953
-24.8219 7.16 9.26859 -1.22144 0 1.9 -0.337717 0.580691 0.740773 -0.247851
-17.8907 2.15122 22.2138 0.661284 0.35837 -3.64871 -0.970765 -0.0924452 0.221517 0.329173
-22.8518 9.59378 6.67484 -0.681419 0 0.344926 -0.137749 0.950107 -0.279861 -0.999874
-13.1298 -2.31709 15.2649 0.126142 -0.133308 -0.7 0.592713 -0.570478 -0.568547 -0.19719
-22.5893 -0.781 16.9575 -1.20471 -0.0326808 -3.5 -0.80423 0.588547 0.0826239 -0.0868845
-13.6554 0.997406 12.3287 -0.417426 0 -0.4 0.96453 0.258821 -0.0519043 0.530117
-18.6575 0.674281 19.8271 3.09688 0.0602277 -3.9 -0.767394 0.461571 0.445037 0.999818
-10.4598 -0.28675 17.049 -0.287361 0 -0.7 0.467924 -0.623105 -0.626728 0.999866
-21.2654 3.04422 6.76256 -0.7369 0 4.2 0.392686 -0.40986 -0.823294 -0.542075
-29.7351 4.83063 6.32613 0.284027 0 -3.1697 -0.167658 -0.939969 -0.297235 -0.999864
-23.1977 -4.70213 12.2977 -1.30786 0 -3.5 -0.965345 -0.112705 -0.235385 -0.717741
-23.5645 1.31053 7.69284 -0.963772 0 1.9 -0.0756087 -0.647781 -0.758066 0.0305851
-22.9325 0.191188 11.2288 -1.56724 0.315283 -3.681 -0.249472 -0.762698 0.596704 -0.635376
-16.9988 -4.94362 9.70556 -0.773727 0 3.8 0.42244 -0.012675 -0.906302 -0.609663
-25.6269 2.38909 6.9955 -1.0927 0 -0.7 -0.617303 -0.679432 -0.396624 -0.733489
-24.2295 3.06606 10.3768 -1.26304 0 -0.7 -0.799105 -0.0460001 0.599429 0.174
-19.3484 -7.5715 13.3845 -1.26164 -0.0895518 -3.5 0.418901 -0.769442 0.482163 -0.999822
-17.4757 -5.787 15.9843 -1.86567 -0.37015 -3.5 0.638999 -0.752268 -0.160537 -0.999888
-13.48 6.27884 13.0703 -0.787808 -0.0504922 2.41979 0.364217 0.212035 -0.906855 0.162393
-21.143 1.28038 7.7735 -0.862235 0 1.9 0.381402 -0.470492 -0.79572 -0.460189
-19.0955 3.20241 9.11422 -0.933133 0 4.2 0.35579 -0.211958 -0.910213 0.89631
-26.204 5.11959 9.36641 -1.0546 0 -0.7 -0.47693 -0.0631744 0.876668 -0.431346
-10.0947 0.0178125 4.50238 1.80843 0 -3.9 -0.51411 0.792152 -0.328916 -0.999857
-10.6705 2.82037 12.559 -0.063152 0 -0.877959 -0.777257 -0.304849 -0.550398 -0.223478
-15.7966 -5.269 16.9237 -0.785644 0 2.8 0.573635 -0.548047 -0.608759 -0.999837
-18.4322 12.6223 11.1353 -0.937893 0 2.8 -0.0926476 0.604096 -0.791508 -0.603382
-10.4426 -0.105312 8.15756 0.89832 0.0289608 -1.79962 -0.616857 0.751756 0.233133 -0.201479
-22.1041 4.8955 5.92541 -0.6483 0 1.8 0.33878 -0.187452 -0.922003 -0.197396
-13.6686 -1.97003 11.9422 0.112052 0.106804 0.160774 0.842614 -0.534429 -0.0662422 -0.819846
-16.8289 3.80366 9.21406 -0.62604 0 1.96204 0.335269 0.126099 -0.933645 -0.139081
-31.1733 9.57887 6.428 0.0309978 0 -3.5 -0.3681 0.373419 0.851505 -0.999879
-20.0195 -2.03813 22.9816 -0.342632 0 -0.4 -0.690977 0.443722 0.570668 -0.999864
-19.648 10.4167 22.6765 -0.874301 0 2.8 0.00104852 0.51452 -0.857478 -0.999895
-17.1966 -1.1515 8.09375 -0.206134 0 -3.9 -0.302412 -0.387983 -0.870641 -0.999855
-11.732 7.2315 14.1785 -0.379079 0 2.8 -0.361148 0.243493 -0.900157 0.999843
-11.5083 -0.3715 6.56275 1.25458 0 -1.70845 -0.783956 0.534348 0.316047 -0.525096
-22.1023 -2.28328 12.7056 -1.41845 -0.688584 -3.5 -0.665382 0.529217 -0.526495 -0.596661
-15.0802 9.93375 11.9253 -1.10185 0 2.8 0.852364 0.18278 -0.489966 -0.597762
-22.1275 7.59106 5.41512 -0.552516 0 2.87235 0.119079 0.269137 -0.955712 -0.876531
-15.194 11.6823 12.816 -0.864532 0.0253273 -3.5 0.739378 0.388671 -0.549777 -0.24352
-14.6112 1.97272 9.0435 -0.526468 0 -3.9 0.589323 0.342258 -0.731818 -0.852768
-31.7415 7.77625 6.08675 0.45186 0 -3.9 -0.718056 -0.447907 0.532705 -0.99984
-11.8394 -1.99262 3.23513 1.29999 0 -3.9 -0.730188 0.375649 -0.570713 -0.999894
-10.1652 5.15472 11.2408 0.0076953 0 -3.9 -0.662627 0.0101791 -0.74888 -0.607859
-24.0955 1.51225 11.0622 -1.23612 0.0183364 -2.90152 -0.754121 -0.0491217 0.654895 -0.610399
-15.8652 -3.18425 14.9823 -0.472697 0 2.8 0.637837 -0.741445 -0.208383 0.695082
-28.5022 7.65919 3.75353 0.331483 -0.012039 -2.04324 0.84635 -0.532491 -0.0120319 -0.122337
-14.814 -0.879313 8.57981 0.0364851 0 -0.4 0.585806 -0.194547 -0.786755 -0.999775
-30.2435 6.69597 4.79175 -0.0143164 0 -3.5 -0.100275 -0.950613 -0.293733 0.0820347
-24.4378 8.27778 6.76166 0.297485 0.593343 1.8 -0.531628 0.767681 -0.357824 -0.34585
-20.4053 6.00519 6.30019 -0.655328 0 4.12504 0.445291 -0.226904 -0.866159 -0.619596
-19.9622 7.95 12.9215 -2.65892 -0.674912 -3.5 -0.482014 0.574689 0.661359 0.659161
-16.3429 5.7735 10.7388 -0.574696 0 -0.4 0.764362 0.150923 -0.626875 0.643583
-22.9606 -4.76119 15.9942 -0.380597 0 2.07211 -0.915344 -0.39128 -0.0951023 -0.999849
-28.5175 5.31287 0.349063 0.152087 0 -2.4286 0.487131 -0.66592 0.565025 -0.999911
-16.6831 12.6474 17.9116 -0.6921 0 2.8 -0.749924 0.21561 0.625401 0.999802
-20.832 -3.929 20.0033 -0.835865 0 3.8 -0.796424 -0.30258 0.523597 -0.999833
-24.0524 -0.038 8.221 -1.89425 0 1.9 -0.348824 -0.753166 -0.55773 -0.999869
-17.4682 6.64053 19.3359 -1.84803 -0.0258864 -3.5 -0.895417 0.392012 0.21108 0.999729
-20.9926 1.77466 12.6098 -5.58845 -0.613092 -3.5 -0.876514 -0.463564 0.129741 0.53283
-20.1703 5.21369 16.4414 -1.11888 0 -3.5 -0.697918 0.513958 0.498756 0.109125
-26.2318 4.73372 6.13906 -1.27216 -0.23803 -3.5 -0.626668 -0.085584 -0.774572 -0.329084
-21.4459 8.70309 8.84059 -0.849245 0 1.97764 -0.242652 0.963629 0.111981 -0.0606274
-11.075 0.760844 15.0918 0.175756 0 -0.4 -0.0221062 -0.693081 -0.720521 0.23544
-20.5903 -0.102844 10.6897 -0.243868 -0.090545 -3.85358 -0.571624 -0.802707 -0.170021 0.11523
-18.5408 10.8056 16.0603 -2.17919 -0.0191245 -3.5 -0.868883 -0.142875 0.473951 -0.303591
-14.6503 7.53519 12.1235 -0.973818 0 2.39312 0.75115 0.160532 -0.640315 -0.189119
-9.2255 -3.3915 11.053 -0.825979 -0.0348714 -0.7 -0.814955 -0.127196 0.565393 0.999739
-19.3997 12.7859 14.3024 -0.821912 0 2.8 -0.836734 0.432697 0.335634 -0.332432
-10.7656 -4.79675 6.41519 1.22527 0 -3.9 -0.790172 -0.610475 0.0542969 0.999913
-18.793 3.875 19.3845 0.168667 0.00138338 -3.9 -0.877855 0.0690733 0.473919 0.258151
-19.2795 10.6225 10.6595 -1.07002 0 2.8 -0.450839 0.580761 -0.677835 -0.105762
-18.9006 4.93041 20.9628 -0.933392 0 -3.5 -0.931299 0.0928346 -0.352226 -0.061064
-29.1855 8.2518 7.56359 0.0582418 0 -3.9 -0.0953616 0.308882 0.946307 -0.463636
-15.6528 -4.0185 11.7135 -0.634685 0 2.8 0.853808 -0.482587 -0.195248 0.0844063
-30.0015 5.34373 7.96108 0.594141 0.231099 -0.7 -0.492377 -0.397824 0.774145 -0.99987
-28.0831 5.45038 8.05675 -0.174155 0 -0.7 -0.457363 -0.461853 0.759942 -0.238338
-19.0113 8.69597 8.61909 -1.05062 0 3.12776 0.462731 0.607414 -0.6457 -0.150647
-20.6818 -0.7095 21.0191 -1.13323 -0.149977 -1.92576 -0.776919 0.477069 0.410856 -0.376555
-22.2885 -4.3095 11.1683 -2.68625 0 -3.5 -0.7283 0.286267 -0.6226 -0.329737
-16.298 0.673844 7.89791 -0.559301 0 -2.05317 -0.0738691 0.213167 -0.974219 -0.663485
-10.9733 -1.656 9.6475 0.608104 0 -0.4 -0.927986 0.222693 0.298748 -0.618327
-16.3967 -5.8993 13.2126 -1.4814 -0.116132 -3.5 0.737146 -0.607473 0.295961 -0.379961
-19.4392 4.70614 7.71644 -0.768676 0 4.2 0.51866 -0.392973 -0.759318 0.0577666
-27.34 5.92375 6.59825 -0.584097 -0.0043797 -1.21714 0.247122 -0.454089 -0.855999 -0.133096
-22.3838 4.62228 15.184 -1.59424 -0.176156 -3.5 -0.77149 0.180987 0.609957 -0.525574
-18.1166 8.52319 17.535 -1.5227 0 -3.5 -0.925081 0.229783 0.302365 -0.121517
-23.4812 2.80781 6.00172 -0.662146 0 1.9 0.165407 -0.514984 -0.84109 -0.681648
-18.8569 0.627734 9.05773 -0.510848 0 -3.9 -0.223502 -0.332683 -0.916171 -0.0807507
-17.7349 -6.63713 10.2312 -1.20252 0 3.8 0.406269 -0.673612 -0.617408 -0.419843
-25.0994 -0.075 9.534 -1.39025 0.774521 -2.36451 -0.805664 -0.542352 0.238241 -0.999899
-19.8496 9.62331 12.8408 -1.48525 0 -3.5 -0.876451 -0.00940948 0.481399 -0.155948
-11.7175 -2.59925 17.1208 -1.2916 -0.950515 -0.7 0.660265 -0.4822 -0.575789 -0.999868
3 120 207 214
3 175 214 207
3 29 120 214
3 214 175 154
3 241 175 207
3 29 214 212
3 175 250 154
3 154 212 214
3 241 242 175
3 239 241 207
3 212 93 29
3 175 242 250
3 250 212 154
3 242 241 239
3 207 196 239
3 212 66 93
3 93 68 29
3 250 242 52
3 250 165 212
3 242 239 159
3 196 47 239
3 212 2 66
3 93 66 21
3 220 68 93
3 52 242 187
3 250 52 227
3 159 165 250
3 165 97 212
3 159 239 165
3 159 73 242
3 61 47 196
3 47 165 239
3 97 2 212
3 106 66 2
3 112 21 66
3 21 220 93
3 187 242 73
3 187 104 52
3 52 180 227
3 250 227 9
3 250 9 159
3 165 47 97
3 159 54 73
3 97 47 61
3 2 97 105
3 106 112 66
3 109 106 2
3 73 166 187
3 104 187 83
3 52 104 180
3 180 95 227
3 227 57 9
3 159 9 54
3 73 54 166
3 24 97 61
3 105 97 24
3 109 2 105
3 106 1 112
3 40 106 109
3 166 83 187
3 104 83 181
3 104 129 180
3 253 95 180
3 227 95 6
3 6 57 227
3 215 9 57
3 54 9 215
3 166 54 215
3 40 1 106
3 166 111 83
3 83 8 181
3 181 129 104
3 180 129 177
3 95 253 6
3 253 180 177
3 193 57 6
3 57 204 215
3 166 215 144
3 166 144 111
3 83 111 8
3 8 113 181
3 181 210 129
3 223 177 129
3 193 6 253
3 174 253 177
3 204 57 193
3 168 215 204
3 168 144 215
3 111 144 228
3 127 8 111
3 127 113 8
3 181 113 121
3 210 181 121
3 210 256 129
3 177 223 134
3 256 223 129
3 253 174 193
3 185 174 177
3 204 193 216
3 168 204 114
3 168 228 144
3 228 43 111
3 27 127 111
3 113 127 251
3 121 113 84
3 121 178 210
3 178 256 210
3 178 134 223
3 177 134 185
3 178 223 256
3 174 249 193
3 249 174 185
3 193 249 216
3 204 216 151
3 151 114 204
3 114 228 168
3 43 228 237
3 111 43 27
3 127 27 140
3 127 140 251
3 113 251 84
3 84 31 121
3 225 178 121
3 178 230 134
3 185 134 254
3 185 186 249
3 156 216 249
3 151 216 156
3 243 114 151
3 228 114 243
3 237 228 243
3 257 43 237
3 27 43 257
3 217 140 27
3 226 251 140
3 251 31 84
3 121 31 225
3 178 225 230
3 254 134 230
3 185 254 186
3 195 249 186
3 77 156 249
3 151 156 243
3 118 237 243
3 237 82 257
3 27 257 217
3 217 108 140
3 138 251 226
3 226 140 108
3 138 31 251
3 31 88 225
3 141 230 225
3 254 230 91
3 19 186 254
3 77 249 195
3 19 195 186
3 77 243 156
3 118 191 237
3 118 243 146
3 237 191 82
3 82 87 257
3 217 257 7
3 217 7 108
3 74 138 226
3 226 108 252
3 88 31 138
3 225 88 145
3 230 141 148
3 141 225 145
3 230 148 91
3 254 91 136
3 19 254 246
3 77 195 218
3 19 246 195
3 77 42 243
3 118 75 191
3 146 243 42
3 146 203 118
3 87 82 191
3 234 257 87
3 7 257 12
3 252 108 7
3 138 74 236
3 152 74 226
3 152 226 252
3 88 138 170
3 170 145 88
3 141 202 148
3 145 115 141
3 91 148 98
3 91 98 136
3 199 254 136
3 246 254 199
3 195 63 218
3 42 77 218
3 195 246 206
3 203 75 118
3 75 49 191
3 146 42 218
3 203 146 232
3 191 103 87
3 231 257 234
3 234 87 103
3 12 257 231
3 12 252 7
3 152 236 74
3 89 138 236
3 224 152 252
3 170 138 62
3 145 170 115
3 141 115 202
3 148 202 245
3 148 245 98
3 98 96 136
3 44 199 136
3 199 213 246
3 206 63 195
3 218 63 90
3 206 246 213
3 205 75 203
3 75 205 49
3 49 103 191
3 232 146 218
3 203 232 131
3 234 157 231
3 234 103 99
3 12 231 252
3 152 238 236
3 62 138 89
3 172 89 236
3 152 224 238
3 224 252 20
3 62 35 170
3 115 170 164
3 202 115 132
3 245 202 176
3 98 245 76
3 96 98 179
3 96 44 136
3 44 213 199
3 63 206 161
3 63 26 90
3 218 90 232
3 206 213 161
3 205 203 131
3 205 149 49
3 99 103 49
3 232 102 131
3 157 234 99
3 221 231 157
3 221 252 231
3 236 238 167
3 62 89 244
3 244 89 172
3 167 172 236
3 100 238 224
3 20 252 69
3 100 224 20
3 62 244 35
3 70 170 35
3 164 170 70
3 115 164 219
3 219 132 115
3 176 202 132
3 176 32 245
3 245 124 76
3 179 98 76
3 179 240 96
3 96 240 44
3 11 213 44
3 161 26 63
3 90 26 142
3 184 232 90
3 213 56 161
3 205 131 41
3 205 41 149
3 99 49 149
3 232 184 102
3 41 131 102
3 252 221 69
3 238 163 167
3 123 244 172
3 123 172 167
3 238 100 160
3 69 22 20
3 20 94 100
3 222 35 244
3 70 35 147
3 164 70 147
3 219 176 132
3 46 32 176
3 135 245 32
3 245 135 124
3 53 76 124
3 179 76 255
3 240 179 67
3 11 44 240
3 56 213 11
3 171 26 161
3 142 26 110
3 90 142 184
3 58 161 56
3 184 200 102
3 65 41 102
3 119 69 221
3 238 60 163
3 167 163 86
3 197 244 123
3 16 123 167
3 160 100 155
3 238 160 60
3 119 22 69
3 20 22 94
3 155 100 94
3 222 147 35
3 158 222 244
3 46 176 219
3 46 150 32
3 116 135 32
3 135 53 124
3 255 76 53
3 255 67 179
3 248 240 67
3 194 11 240
3 56 11 194
3 171 110 26
3 171 161 58
3 33 142 110
3 142 28 184
3 194 58 56
3 130 200 184
3 65 102 200
3 163 60 15
3 81 86 163
3 16 167 86
3 158 244 197
3 30 197 123
3 123 16 30
3 155 18 160
3 92 60 160
3 23 22 119
3 94 22 117
3 155 94 198
3 137 147 222
3 150 46 219
3 135 116 53
3 255 53 116
3 67 255 248
3 240 248 45
3 240 211 194
3 171 37 110
3 58 37 171
3 142 33 28
3 229 33 110
3 130 184 28
3 58 194 37
3 79 200 130
3 65 200 79
3 60 3 15
3 163 15 81
3 18 155 55
3 101 160 18
3 92 3 60
3 101 92 160
3 117 22 23
3 117 198 94
3 55 155 198
3 222 39 137
3 116 59 255
3 248 255 59
3 248 183 45
3 45 211 240
3 194 211 133
3 229 110 37
3 28 33 189
3 33 229 189
3 209 130 28
3 133 37 194
3 13 79 130
3 55 101 18
3 116 182 59
3 59 182 248
3 248 38 183
3 183 211 45
3 133 211 169
3 229 37 5
3 189 209 28
3 189 229 128
3 209 64 130
3 169 37 133
3 64 13 130
3 182 38 248
3 38 122 183
3 190 211 183
3 126 169 211
3 5 37 169
3 5 173 229
3 85 209 189
3 128 229 17
3 51 189 128
3 107 64 209
3 38 182 122
3 126 211 190
3 169 126 125
3 169 173 5
3 173 17 229
3 85 107 209
3 51 85 189
3 25 128 17
3 128 71 51
3 169 125 258
3 169 258 173
3 85 139 107
3 51 139 85
3 128 25 34
3 71 128 34
3 71 139 51
3 10 34 25
3 34 233 71
3 139 71 162
3 10 233 34
3 71 233 247
3 162 71 247
3 4 139 162
3 143 247 233
3 192 162 247
3 0 139 4
3 162 192 4
3 247 143 153
3 233 72 143
3 247 153 192
3 36 4 192
3 153 143 235
3 72 78 143
3 192 153 201
3 48 36 192
3 78 235 143
3 153 235 14
3 201 153 14
3 48 192 201
3 14 235 80
3 50 201 14
3 188 48 201
3 14 80 50
3 50 188 201
3 80 208 50
3 208 188 50
